<?xml version="1.0" encoding="UTF-8"?>
<svg id="Calque_2" xmlns="http://www.w3.org/2000/svg" viewBox="0 0 77.76 59.82">
    <defs>
        <style>.cls-1{fill:#6d645a;}.cls-2{fill:red;}.cls-3{fill:#fbfbfb;}</style>
    </defs>
    <g id="souvenir-dessin">
        <path class="cls-2"
            d="M16.86,58.32c-.8,0-1.49-.02-2.05-.07-3.68-.45-6.83-2.82-8.28-6.21C3.41,44.23.89,26.66,1.62,17.82c.44-3.69,2.81-6.85,6.18-8.3C18.17,5.76,51.87,1.5,60.83,1.5c1.01,0,1.72.05,2.22.15,3.6.46,6.72,2.83,8.16,6.19,3.34,8.27,5.68,24.59,4.92,34.25-.44,3.7-2.81,6.86-6.18,8.31-7.88,3.19-41.53,7.91-53.08,7.91,0,0,0,0,0,0Z" />
        <path class="cls-1"
            d="M60.83,3c.91,0,1.58.04,1.96.13,3.12.38,5.79,2.4,7.03,5.3,3.34,8.29,5.51,24.55,4.81,33.55-.38,3.12-2.39,5.81-5.28,7.05-7.66,3.1-41.46,7.79-52.49,7.79-.75,0-1.39-.02-1.92-.07-3.12-.38-5.79-2.4-7.03-5.3-3.16-7.9-5.48-25.24-4.8-33.5.38-3.12,2.39-5.81,5.28-7.05,10-3.62,43.29-7.9,52.43-7.9M60.83,0C51.55,0,18.01,4.22,7.37,8.08l-.08.03-.08.03C3.35,9.8.64,13.42.14,17.59v.06s-.01.06-.01.06c-.69,8.35,1.48,26.07,5,34.87v.03s.03.03.03.03c1.66,3.87,5.27,6.59,9.43,7.1h.05s.05.01.05.01c.61.05,1.32.08,2.17.08,11.64,0,45.65-4.79,53.61-8.01h.03s.03-.02.03-.02c3.86-1.66,6.57-5.28,7.07-9.45v-.06s.01-.06.01-.06c.77-9.85-1.62-26.49-5.01-34.9v-.03s-.02-.03-.02-.03c-1.64-3.83-5.19-6.53-9.29-7.08-.6-.12-1.37-.17-2.46-.17h0Z" />
        <path class="cls-3"
            d="M48.05,17.72l-.73,22.85-5.59.79.28-8.25-6.03.86-.25,8.25-5.59.79.76-22.85,5.56-.79-.33,9.65,6.03-.86.33-9.65,5.56-.79Z" />
    </g>
</svg>