<?xml version="1.0" encoding="UTF-8"?>
<svg id="Calque_2" xmlns="http://www.w3.org/2000/svg" viewBox="0 0 131.27 69.42">
    <defs>
        <style>
            .cls-1{stroke:#e0ae68;}.cls-1,.cls-2{fill:none;stroke-linecap:round;stroke-miterlimit:10;stroke-width:3px;}.cls-3{fill:#565454;}.cls-2{stroke:#f2bb79;}.cls-4{fill:#e0ae68;}.cls-5{fill:#3f1d15;}</style>
    </defs>
    <g id="Souvenir-meuble">
        <path class="cls-1"
            d="M129.77,19.3S112.98,1.21,86.24,1.5c-26.73.3-39.25,33.05-17.96,42.36,21.29,9.31,26.65-25.16-12.09-27.4-8.49-.49-15.28,1.4-20.71,4.66" />
        <path class="cls-3"
            d="M5.53,26.71c-.74,0-1.27-.21-1.59-.64l-2.66-3.49c-.25-.33-.34-.76-.24-1.19.63-2.87,11.19-8.57,12.39-9.21,6.24-3.32,12-5.56,14.33-5.56.74,0,1.27.21,1.59.64l2.66,3.49c.25.33.34.75.24,1.19-.63,2.87-11.19,8.57-12.39,9.21-6.24,3.32-12,5.56-14.33,5.56h0Z" />
        <path class="cls-5"
            d="M27.76,7.62c.4,0,.67.08.8.24l2.66,3.49h0c.78,1.03-4.51,5.02-11.83,8.92-6.14,3.27-11.76,5.44-13.86,5.44-.4,0-.67-.08-.8-.24h0s-2.66-3.49-2.66-3.49c-.78-1.03,4.51-5.02,11.83-8.92,6.14-3.27,11.76-5.44,13.86-5.44M27.76,5.62c-3.07,0-9.89,3.06-14.8,5.67C9.31,13.24.73,18.1.06,21.18c-.16.73,0,1.44.42,2.01l2.66,3.49c.36.47,1.06,1.03,2.39,1.03,3.07,0,9.89-3.06,14.8-5.67,3.66-1.95,12.23-6.81,12.9-9.88.16-.73,0-1.44-.42-2.01l-2.66-3.49c-.36-.47-1.06-1.03-2.39-1.03h0Z" />
        <polygon class="cls-4" points="37.05 61.99 57.15 51.28 28.34 13.46 8.24 24.17 37.05 61.99" />
        <path class="cls-3"
            d="M37.32,68.42c-.74,0-1.27-.21-1.59-.64l-2.66-3.49c-.25-.33-.34-.75-.24-1.19.63-2.87,11.19-8.57,12.39-9.21,6.24-3.32,12-5.56,14.33-5.56.74,0,1.27.21,1.59.64l2.66,3.49c.25.33.34.75.24,1.19-.62,2.87-11.19,8.57-12.39,9.21-6.24,3.32-12,5.56-14.33,5.56h0Z" />
        <path class="cls-5"
            d="M59.55,49.33c.4,0,.67.08.8.24l2.66,3.49c.78,1.03-4.51,5.02-11.83,8.92-6.14,3.27-11.76,5.44-13.86,5.44-.4,0-.67-.08-.8-.24l-2.66-3.49c-.78-1.03,4.51-5.02,11.83-8.92,6.14-3.27,11.76-5.44,13.86-5.44M59.55,47.33c-3.07,0-9.89,3.06-14.8,5.67-3.66,1.95-12.23,6.81-12.9,9.88-.16.73,0,1.44.42,2.01l2.66,3.49c.36.47,1.06,1.03,2.39,1.03,3.07,0,9.89-3.06,14.8-5.67,3.66-1.95,12.23-6.81,12.9-9.88.16-.73,0-1.44-.42-2.01l-2.66-3.49c-.36-.47-1.06-1.03-2.39-1.03h0Z" />
        <path class="cls-2" d="M55.82,49.04s-7.53-2.74-24.68,5.35" />
        <path class="cls-2" d="M51.77,43.71s-7.53-2.74-24.68,5.35" />
        <path class="cls-2" d="M49.07,40.17s-7.53-2.74-24.68,5.35" />
        <path class="cls-2" d="M39.36,27.43s-7.53-2.74-24.68,5.35" />
        <path class="cls-2" d="M32.96,19.19s-7.53-2.74-24.68,5.35" />
        <path class="cls-2" d="M28.62,51.07s.21-6.86,16.22-16.45" />
        <path class="cls-2" d="M22.14,42.57s.21-6.86,16.22-16.45" />
        <path class="cls-2" d="M15.67,34.07s.21-6.86,16.22-16.45" />
    </g>
</svg>